<svg id="visual" viewBox="0 0 1920 1080" width="1920" height="1080" xmlns="http://www.w3.org/2000/svg" xmlns:xlink="http://www.w3.org/1999/xlink" version="1.1"><rect x="0" y="0" width="1920" height="1080" fill="#fae1dd"></rect><path d="M0 642L45.7 660C91.3 678 182.7 714 274.2 713.7C365.7 713.3 457.3 676.7 548.8 683.2C640.3 689.7 731.7 739.3 823 758.7C914.3 778 1005.7 767 1097 761.5C1188.3 756 1279.7 756 1371.2 742C1462.7 728 1554.3 700 1645.8 693.7C1737.3 687.3 1828.7 702.7 1874.3 710.3L1920 718L1920 1081L1874.3 1081C1828.7 1081 1737.3 1081 1645.8 1081C1554.3 1081 1462.7 1081 1371.2 1081C1279.7 1081 1188.3 1081 1097 1081C1005.7 1081 914.3 1081 823 1081C731.7 1081 640.3 1081 548.8 1081C457.3 1081 365.7 1081 274.2 1081C182.7 1081 91.3 1081 45.7 1081L0 1081Z" fill="#0474eb"></path><path d="M0 800L45.7 785.7C91.3 771.3 182.7 742.7 274.2 746C365.7 749.3 457.3 784.7 548.8 787C640.3 789.3 731.7 758.7 823 765.2C914.3 771.7 1005.7 815.3 1097 838C1188.3 860.7 1279.7 862.3 1371.2 837.7C1462.7 813 1554.3 762 1645.8 761.8C1737.3 761.7 1828.7 812.3 1874.3 837.7L1920 863L1920 1081L1874.3 1081C1828.7 1081 1737.3 1081 1645.8 1081C1554.3 1081 1462.7 1081 1371.2 1081C1279.7 1081 1188.3 1081 1097 1081C1005.7 1081 914.3 1081 823 1081C731.7 1081 640.3 1081 548.8 1081C457.3 1081 365.7 1081 274.2 1081C182.7 1081 91.3 1081 45.7 1081L0 1081Z" fill="#2e85ec"></path><path d="M0 851L45.7 846C91.3 841 182.7 831 274.2 826.2C365.7 821.3 457.3 821.7 548.8 830.5C640.3 839.3 731.7 856.7 823 865.7C914.3 874.7 1005.7 875.3 1097 869C1188.3 862.7 1279.7 849.3 1371.2 851.2C1462.7 853 1554.3 870 1645.8 876.2C1737.3 882.3 1828.7 877.7 1874.3 875.3L1920 873L1920 1081L1874.3 1081C1828.7 1081 1737.3 1081 1645.8 1081C1554.3 1081 1462.7 1081 1371.2 1081C1279.7 1081 1188.3 1081 1097 1081C1005.7 1081 914.3 1081 823 1081C731.7 1081 640.3 1081 548.8 1081C457.3 1081 365.7 1081 274.2 1081C182.7 1081 91.3 1081 45.7 1081L0 1081Z" fill="#4c96ec"></path><path d="M0 934L45.7 930.7C91.3 927.3 182.7 920.7 274.2 913.3C365.7 906 457.3 898 548.8 899.5C640.3 901 731.7 912 823 921.2C914.3 930.3 1005.7 937.7 1097 938.5C1188.3 939.3 1279.7 933.7 1371.2 933.3C1462.7 933 1554.3 938 1645.8 943.2C1737.3 948.3 1828.7 953.7 1874.3 956.3L1920 959L1920 1081L1874.3 1081C1828.7 1081 1737.3 1081 1645.8 1081C1554.3 1081 1462.7 1081 1371.2 1081C1279.7 1081 1188.3 1081 1097 1081C1005.7 1081 914.3 1081 823 1081C731.7 1081 640.3 1081 548.8 1081C457.3 1081 365.7 1081 274.2 1081C182.7 1081 91.3 1081 45.7 1081L0 1081Z" fill="#68a6ea"></path><path d="M0 989L45.7 983.5C91.3 978 182.7 967 274.2 970.2C365.7 973.3 457.3 990.7 548.8 989.2C640.3 987.7 731.7 967.3 823 962C914.3 956.7 1005.7 966.3 1097 972.2C1188.3 978 1279.7 980 1371.2 989.2C1462.7 998.3 1554.3 1014.7 1645.8 1016.5C1737.3 1018.3 1828.7 1005.7 1874.3 999.3L1920 993L1920 1081L1874.3 1081C1828.7 1081 1737.3 1081 1645.8 1081C1554.3 1081 1462.7 1081 1371.2 1081C1279.7 1081 1188.3 1081 1097 1081C1005.7 1081 914.3 1081 823 1081C731.7 1081 640.3 1081 548.8 1081C457.3 1081 365.7 1081 274.2 1081C182.7 1081 91.3 1081 45.7 1081L0 1081Z" fill="#84b5e8"></path></svg>